# Blender 3.4.1
# www.blender.org
mtllib laser.mtl
o Cylinder.001
v -47.716686 26.894651 73.813896
v -46.492443 26.285881 72.328323
v -47.699833 26.885612 73.831490
v -46.475590 26.276840 72.345917
v -47.681038 26.881151 73.848808
v -46.456795 26.272381 72.363235
v -47.661026 26.881441 73.865181
v -46.436783 26.272671 72.379608
v -47.640560 26.886473 73.879982
v -46.416317 26.277700 72.394409
v -47.620434 26.896049 73.892647
v -46.396191 26.287277 72.407074
v -47.601421 26.909805 73.902679
v -46.377178 26.301033 72.417107
v -47.584244 26.927210 73.909698
v -46.360001 26.318439 72.424126
v -47.569572 26.947596 73.913437
v -46.345329 26.338825 72.427864
v -47.557964 26.970181 73.913750
v -46.333721 26.361408 72.428177
v -47.549866 26.994095 73.910622
v -46.325623 26.385323 72.425049
v -47.545593 27.018419 73.904175
v -46.321350 26.409647 72.418602
v -47.545303 27.042219 73.894661
v -46.321060 26.433447 72.409088
v -47.549011 27.064581 73.882439
v -46.324768 26.455809 72.396866
v -47.556580 27.084644 73.867989
v -46.332336 26.475872 72.382416
v -47.567707 27.101639 73.851852
v -46.343464 26.492867 72.366280
v -47.581974 27.114910 73.834656
v -46.357731 26.506140 72.349083
v -47.598827 27.123951 73.817062
v -46.374584 26.515179 72.331490
v -47.617622 27.128410 73.799744
v -46.393379 26.519640 72.314171
v -47.637634 27.128120 73.783371
v -46.413391 26.519350 72.297798
v -47.658100 27.123091 73.768570
v -46.433857 26.514318 72.282997
v -47.678226 27.113514 73.755905
v -46.453983 26.504742 72.270332
v -47.697239 27.099758 73.745872
v -46.472996 26.490986 72.260300
v -47.714417 27.082352 73.738853
v -46.490173 26.473581 72.253281
v -47.729088 27.061966 73.735115
v -46.504845 26.453196 72.249542
v -47.740696 27.039383 73.734802
v -46.516453 26.430611 72.249229
v -47.748795 27.015469 73.737930
v -46.524551 26.406696 72.252357
v -47.753067 26.991144 73.744377
v -46.528824 26.382372 72.258804
v -47.753357 26.967344 73.753891
v -46.529114 26.358572 72.268318
v -47.749649 26.944983 73.766113
v -46.525406 26.336210 72.280540
v -47.742081 26.924919 73.780563
v -46.517838 26.316147 72.294991
v -47.730953 26.907925 73.796700
v -46.506710 26.299152 72.311127
vn -0.4601 -0.8877 -0.0154
vn -0.3278 -0.9378 0.1142
vn -0.1827 -0.9534 0.2402
vn -0.0296 -0.9332 0.3581
vn 0.1259 -0.8772 0.4632
vn 0.2781 -0.7865 0.5514
vn 0.4202 -0.6641 0.6184
vn 0.5463 -0.5144 0.6610
vn 0.6507 -0.3438 0.6771
vn 0.7287 -0.1597 0.6660
vn 0.7774 0.0300 0.6283
vn 0.7951 0.2167 0.5664
vn 0.7820 0.3937 0.4831
vn 0.7394 0.5542 0.3822
vn 0.6696 0.6928 0.2679
vn 0.5753 0.8052 0.1441
vn 0.4601 0.8877 0.0154
vn 0.3278 0.9378 -0.1142
vn 0.1827 0.9534 -0.2402
vn 0.0295 0.9331 -0.3584
vn -0.1259 0.8772 -0.4632
vn -0.2781 0.7865 -0.5514
vn -0.4202 0.6641 -0.6184
vn -0.5463 0.5144 -0.6610
vn -0.6507 0.3438 -0.6771
vn -0.7287 0.1597 -0.6660
vn -0.7771 -0.0300 -0.6287
vn -0.7951 -0.2167 -0.5664
vn -0.7820 -0.3937 -0.4831
vn -0.7394 -0.5542 -0.3822
vn 0.6064 -0.3015 -0.7358
vn -0.6696 -0.6928 -0.2679
vn -0.5753 -0.8052 -0.1441
vn -0.6064 0.3015 0.7358
vt 1.000000 0.500000
vt 0.000000 0.500000
vt 0.750000 0.490000
vt 1.000000 1.000000
vt 0.250000 0.490000
vt 0.000000 1.000000
vt 0.968750 0.500000
vt 0.796822 0.485388
vt 0.968750 1.000000
vt 0.296822 0.485388
vt 0.937500 0.500000
vt 0.841844 0.471731
vt 0.937500 1.000000
vt 0.341844 0.471731
vt 0.906250 0.500000
vt 0.883337 0.449553
vt 0.906250 1.000000
vt 0.383337 0.449553
vt 0.875000 0.500000
vt 0.919706 0.419706
vt 0.875000 1.000000
vt 0.419706 0.419706
vt 0.843750 0.500000
vt 0.949553 0.383337
vt 0.843750 1.000000
vt 0.449553 0.383337
vt 0.812500 0.500000
vt 0.971731 0.341844
vt 0.812500 1.000000
vt 0.471731 0.341844
vt 0.781250 0.500000
vt 0.985388 0.296822
vt 0.781250 1.000000
vt 0.485388 0.296822
vt 0.750000 0.500000
vt 0.990000 0.250000
vt 0.750000 1.000000
vt 0.490000 0.250000
vt 0.718750 0.500000
vt 0.985388 0.203178
vt 0.718750 1.000000
vt 0.485388 0.203178
vt 0.687500 0.500000
vt 0.971731 0.158156
vt 0.687500 1.000000
vt 0.471731 0.158156
vt 0.656250 0.500000
vt 0.949553 0.116663
vt 0.656250 1.000000
vt 0.449553 0.116663
vt 0.625000 0.500000
vt 0.919706 0.080294
vt 0.625000 1.000000
vt 0.419706 0.080294
vt 0.593750 0.500000
vt 0.883337 0.050447
vt 0.593750 1.000000
vt 0.383337 0.050447
vt 0.562500 0.500000
vt 0.841844 0.028269
vt 0.562500 1.000000
vt 0.341844 0.028269
vt 0.531250 0.500000
vt 0.796822 0.014612
vt 0.531250 1.000000
vt 0.296822 0.014612
vt 0.500000 0.500000
vt 0.750000 0.010000
vt 0.500000 1.000000
vt 0.250000 0.010000
vt 0.468750 0.500000
vt 0.703178 0.014612
vt 0.468750 1.000000
vt 0.203178 0.014612
vt 0.437500 0.500000
vt 0.658156 0.028269
vt 0.437500 1.000000
vt 0.158156 0.028269
vt 0.406250 0.500000
vt 0.616663 0.050447
vt 0.406250 1.000000
vt 0.116663 0.050447
vt 0.375000 0.500000
vt 0.580294 0.080294
vt 0.375000 1.000000
vt 0.080294 0.080294
vt 0.343750 0.500000
vt 0.550447 0.116663
vt 0.343750 1.000000
vt 0.050447 0.116663
vt 0.312500 0.500000
vt 0.528269 0.158156
vt 0.312500 1.000000
vt 0.028269 0.158156
vt 0.281250 0.500000
vt 0.514612 0.203178
vt 0.281250 1.000000
vt 0.014612 0.203178
vt 0.250000 0.500000
vt 0.510000 0.250000
vt 0.250000 1.000000
vt 0.010000 0.250000
vt 0.218750 0.500000
vt 0.514612 0.296822
vt 0.218750 1.000000
vt 0.014612 0.296822
vt 0.187500 0.500000
vt 0.528269 0.341844
vt 0.187500 1.000000
vt 0.028269 0.341844
vt 0.156250 0.500000
vt 0.550447 0.383337
vt 0.156250 1.000000
vt 0.050447 0.383337
vt 0.125000 0.500000
vt 0.580294 0.419706
vt 0.125000 1.000000
vt 0.080294 0.419706
vt 0.093750 0.500000
vt 0.616663 0.449553
vt 0.093750 1.000000
vt 0.116663 0.449553
vt 0.062500 0.500000
vt 0.658156 0.471731
vt 0.158156 0.471731
vt 0.062500 1.000000
vt 0.031250 0.500000
vt 0.703178 0.485388
vt 0.203178 0.485388
vt 0.031250 1.000000
s 0
f 1/1/1 2/4/1 4/9/1 3/7/1
f 3/7/2 4/9/2 6/13/2 5/11/2
f 5/11/3 6/13/3 8/17/3 7/15/3
f 7/15/4 8/17/4 10/21/4 9/19/4
f 9/19/5 10/21/5 12/25/5 11/23/5
f 11/23/6 12/25/6 14/29/6 13/27/6
f 13/27/7 14/29/7 16/33/7 15/31/7
f 15/31/8 16/33/8 18/37/8 17/35/8
f 17/35/9 18/37/9 20/41/9 19/39/9
f 19/39/10 20/41/10 22/45/10 21/43/10
f 21/43/11 22/45/11 24/49/11 23/47/11
f 23/47/12 24/49/12 26/53/12 25/51/12
f 25/51/13 26/53/13 28/57/13 27/55/13
f 27/55/14 28/57/14 30/61/14 29/59/14
f 29/59/15 30/61/15 32/65/15 31/63/15
f 31/63/16 32/65/16 34/69/16 33/67/16
f 33/67/17 34/69/17 36/73/17 35/71/17
f 35/71/18 36/73/18 38/77/18 37/75/18
f 37/75/19 38/77/19 40/81/19 39/79/19
f 39/79/20 40/81/20 42/85/20 41/83/20
f 41/83/21 42/85/21 44/89/21 43/87/21
f 43/87/22 44/89/22 46/93/22 45/91/22
f 45/91/23 46/93/23 48/97/23 47/95/23
f 47/95/24 48/97/24 50/101/24 49/99/24
f 49/99/25 50/101/25 52/105/25 51/103/25
f 51/103/26 52/105/26 54/109/26 53/107/26
f 53/107/27 54/109/27 56/113/27 55/111/27
f 55/111/28 56/113/28 58/117/28 57/115/28
f 57/115/29 58/117/29 60/121/29 59/119/29
f 59/119/30 60/121/30 62/126/30 61/123/30
f 4/10/31 2/5/31 64/129/31 62/125/31 60/122/31 58/118/31 56/114/31 54/110/31 52/106/31 50/102/31 48/98/31 46/94/31 44/90/31 42/86/31 40/82/31 38/78/31 36/74/31 34/70/31 32/66/31 30/62/31 28/58/31 26/54/31 24/50/31 22/46/31 20/42/31 18/38/31 16/34/31 14/30/31 12/26/31 10/22/31 8/18/31 6/14/31
f 61/123/32 62/126/32 64/130/32 63/127/32
f 63/127/33 64/130/33 2/6/33 1/2/33
f 1/3/34 3/8/34 5/12/34 7/16/34 9/20/34 11/24/34 13/28/34 15/32/34 17/36/34 19/40/34 21/44/34 23/48/34 25/52/34 27/56/34 29/60/34 31/64/34 33/68/34 35/72/34 37/76/34 39/80/34 41/84/34 43/88/34 45/92/34 47/96/34 49/100/34 51/104/34 53/108/34 55/112/34 57/116/34 59/120/34 61/124/34 63/128/34
