# Blender 3.4.1
# www.blender.org
mtllib laser2.mtl
o Cylinder.002
v -48.815884 27.493252 72.940697
v -47.591640 26.884481 71.455124
v -48.799030 27.484213 72.958290
v -47.574787 26.875441 71.472717
v -48.780235 27.479752 72.975609
v -47.555992 26.870981 71.490036
v -48.760223 27.480042 72.991982
v -47.535980 26.871271 71.506409
v -48.739758 27.485073 73.006783
v -47.515514 26.876301 71.521210
v -48.719631 27.494650 73.019447
v -47.495388 26.885878 71.533875
v -48.700619 27.508406 73.029480
v -47.476376 26.899633 71.543907
v -48.683441 27.525810 73.036499
v -47.459198 26.917040 71.550926
v -48.668770 27.546196 73.040237
v -47.444527 26.937426 71.554665
v -48.657162 27.568781 73.040550
v -47.432919 26.960009 71.554977
v -48.649063 27.592695 73.037422
v -47.424820 26.983923 71.551849
v -48.644791 27.617020 73.030975
v -47.420547 27.008247 71.545403
v -48.644501 27.640820 73.021461
v -47.420258 27.032047 71.535889
v -48.648209 27.663181 73.009239
v -47.423965 27.054409 71.523666
v -48.655777 27.683245 72.994789
v -47.431534 27.074472 71.509216
v -48.666904 27.700239 72.978653
v -47.442661 27.091467 71.493080
v -48.681171 27.713511 72.961456
v -47.456928 27.104740 71.475883
v -48.698025 27.722551 72.943863
v -47.473782 27.113779 71.458290
v -48.716820 27.727011 72.926544
v -47.492577 27.118240 71.440971
v -48.736832 27.726721 72.910172
v -47.512589 27.117950 71.424599
v -48.757298 27.721691 72.895370
v -47.533054 27.112919 71.409798
v -48.777424 27.712114 72.882706
v -47.553181 27.103342 71.397133
v -48.796436 27.698359 72.872673
v -47.572193 27.089586 71.387100
v -48.813614 27.680952 72.865654
v -47.589371 27.072182 71.380081
v -48.828285 27.660566 72.861916
v -47.604042 27.051796 71.376343
v -48.839893 27.637983 72.861603
v -47.615650 27.029211 71.376030
v -48.847992 27.614069 72.864731
v -47.623749 27.005297 71.379158
v -48.852264 27.589745 72.871178
v -47.628021 26.980972 71.385605
v -48.852554 27.565945 72.880692
v -47.628311 26.957172 71.395119
v -48.848846 27.543583 72.892914
v -47.624603 26.934811 71.407341
v -48.841278 27.523520 72.907364
v -47.617035 26.914747 71.421791
v -48.830151 27.506525 72.923500
v -47.605907 26.897753 71.437927
vn -0.4601 -0.8877 -0.0154
vn -0.3278 -0.9378 0.1142
vn -0.1827 -0.9534 0.2402
vn -0.0296 -0.9332 0.3581
vn 0.1259 -0.8772 0.4632
vn 0.2781 -0.7865 0.5514
vn 0.4202 -0.6641 0.6184
vn 0.5463 -0.5144 0.6610
vn 0.6507 -0.3438 0.6771
vn 0.7287 -0.1597 0.6660
vn 0.7774 0.0300 0.6283
vn 0.7951 0.2167 0.5664
vn 0.7820 0.3937 0.4831
vn 0.7394 0.5542 0.3822
vn 0.6696 0.6928 0.2679
vn 0.5753 0.8052 0.1441
vn 0.4601 0.8877 0.0154
vn 0.3278 0.9378 -0.1142
vn 0.1827 0.9534 -0.2402
vn 0.0295 0.9331 -0.3584
vn -0.1259 0.8772 -0.4632
vn -0.2781 0.7865 -0.5514
vn -0.4202 0.6641 -0.6184
vn -0.5463 0.5144 -0.6610
vn -0.6507 0.3438 -0.6771
vn -0.7287 0.1597 -0.6660
vn -0.7771 -0.0300 -0.6287
vn -0.7951 -0.2167 -0.5664
vn -0.7820 -0.3937 -0.4831
vn -0.7394 -0.5542 -0.3822
vn 0.6064 -0.3015 -0.7358
vn -0.6696 -0.6928 -0.2679
vn -0.5753 -0.8052 -0.1441
vn -0.6064 0.3015 0.7358
vt 1.000000 0.500000
vt 0.000000 0.500000
vt 0.750000 0.490000
vt 1.000000 1.000000
vt 0.250000 0.490000
vt 0.000000 1.000000
vt 0.968750 0.500000
vt 0.796822 0.485388
vt 0.968750 1.000000
vt 0.296822 0.485388
vt 0.937500 0.500000
vt 0.841844 0.471731
vt 0.937500 1.000000
vt 0.341844 0.471731
vt 0.906250 0.500000
vt 0.883337 0.449553
vt 0.906250 1.000000
vt 0.383337 0.449553
vt 0.875000 0.500000
vt 0.919706 0.419706
vt 0.875000 1.000000
vt 0.419706 0.419706
vt 0.843750 0.500000
vt 0.949553 0.383337
vt 0.843750 1.000000
vt 0.449553 0.383337
vt 0.812500 0.500000
vt 0.971731 0.341844
vt 0.812500 1.000000
vt 0.471731 0.341844
vt 0.781250 0.500000
vt 0.985388 0.296822
vt 0.781250 1.000000
vt 0.485388 0.296822
vt 0.750000 0.500000
vt 0.990000 0.250000
vt 0.750000 1.000000
vt 0.490000 0.250000
vt 0.718750 0.500000
vt 0.985388 0.203178
vt 0.718750 1.000000
vt 0.485388 0.203178
vt 0.687500 0.500000
vt 0.971731 0.158156
vt 0.687500 1.000000
vt 0.471731 0.158156
vt 0.656250 0.500000
vt 0.949553 0.116663
vt 0.656250 1.000000
vt 0.449553 0.116663
vt 0.625000 0.500000
vt 0.919706 0.080294
vt 0.625000 1.000000
vt 0.419706 0.080294
vt 0.593750 0.500000
vt 0.883337 0.050447
vt 0.593750 1.000000
vt 0.383337 0.050447
vt 0.562500 0.500000
vt 0.841844 0.028269
vt 0.562500 1.000000
vt 0.341844 0.028269
vt 0.531250 0.500000
vt 0.796822 0.014612
vt 0.531250 1.000000
vt 0.296822 0.014612
vt 0.500000 0.500000
vt 0.750000 0.010000
vt 0.500000 1.000000
vt 0.250000 0.010000
vt 0.468750 0.500000
vt 0.703178 0.014612
vt 0.468750 1.000000
vt 0.203178 0.014612
vt 0.437500 0.500000
vt 0.658156 0.028269
vt 0.437500 1.000000
vt 0.158156 0.028269
vt 0.406250 0.500000
vt 0.616663 0.050447
vt 0.406250 1.000000
vt 0.116663 0.050447
vt 0.375000 0.500000
vt 0.580294 0.080294
vt 0.375000 1.000000
vt 0.080294 0.080294
vt 0.343750 0.500000
vt 0.550447 0.116663
vt 0.343750 1.000000
vt 0.050447 0.116663
vt 0.312500 0.500000
vt 0.528269 0.158156
vt 0.312500 1.000000
vt 0.028269 0.158156
vt 0.281250 0.500000
vt 0.514612 0.203178
vt 0.281250 1.000000
vt 0.014612 0.203178
vt 0.250000 0.500000
vt 0.510000 0.250000
vt 0.250000 1.000000
vt 0.010000 0.250000
vt 0.218750 0.500000
vt 0.514612 0.296822
vt 0.218750 1.000000
vt 0.014612 0.296822
vt 0.187500 0.500000
vt 0.528269 0.341844
vt 0.187500 1.000000
vt 0.028269 0.341844
vt 0.156250 0.500000
vt 0.550447 0.383337
vt 0.156250 1.000000
vt 0.050447 0.383337
vt 0.125000 0.500000
vt 0.580294 0.419706
vt 0.125000 1.000000
vt 0.080294 0.419706
vt 0.093750 0.500000
vt 0.616663 0.449553
vt 0.093750 1.000000
vt 0.116663 0.449553
vt 0.062500 0.500000
vt 0.658156 0.471731
vt 0.158156 0.471731
vt 0.062500 1.000000
vt 0.031250 0.500000
vt 0.703178 0.485388
vt 0.203178 0.485388
vt 0.031250 1.000000
s 0
f 1/1/1 2/4/1 4/9/1 3/7/1
f 3/7/2 4/9/2 6/13/2 5/11/2
f 5/11/3 6/13/3 8/17/3 7/15/3
f 7/15/4 8/17/4 10/21/4 9/19/4
f 9/19/5 10/21/5 12/25/5 11/23/5
f 11/23/6 12/25/6 14/29/6 13/27/6
f 13/27/7 14/29/7 16/33/7 15/31/7
f 15/31/8 16/33/8 18/37/8 17/35/8
f 17/35/9 18/37/9 20/41/9 19/39/9
f 19/39/10 20/41/10 22/45/10 21/43/10
f 21/43/11 22/45/11 24/49/11 23/47/11
f 23/47/12 24/49/12 26/53/12 25/51/12
f 25/51/13 26/53/13 28/57/13 27/55/13
f 27/55/14 28/57/14 30/61/14 29/59/14
f 29/59/15 30/61/15 32/65/15 31/63/15
f 31/63/16 32/65/16 34/69/16 33/67/16
f 33/67/17 34/69/17 36/73/17 35/71/17
f 35/71/18 36/73/18 38/77/18 37/75/18
f 37/75/19 38/77/19 40/81/19 39/79/19
f 39/79/20 40/81/20 42/85/20 41/83/20
f 41/83/21 42/85/21 44/89/21 43/87/21
f 43/87/22 44/89/22 46/93/22 45/91/22
f 45/91/23 46/93/23 48/97/23 47/95/23
f 47/95/24 48/97/24 50/101/24 49/99/24
f 49/99/25 50/101/25 52/105/25 51/103/25
f 51/103/26 52/105/26 54/109/26 53/107/26
f 53/107/27 54/109/27 56/113/27 55/111/27
f 55/111/28 56/113/28 58/117/28 57/115/28
f 57/115/29 58/117/29 60/121/29 59/119/29
f 59/119/30 60/121/30 62/126/30 61/123/30
f 4/10/31 2/5/31 64/129/31 62/125/31 60/122/31 58/118/31 56/114/31 54/110/31 52/106/31 50/102/31 48/98/31 46/94/31 44/90/31 42/86/31 40/82/31 38/78/31 36/74/31 34/70/31 32/66/31 30/62/31 28/58/31 26/54/31 24/50/31 22/46/31 20/42/31 18/38/31 16/34/31 14/30/31 12/26/31 10/22/31 8/18/31 6/14/31
f 61/123/32 62/126/32 64/130/32 63/127/32
f 63/127/33 64/130/33 2/6/33 1/2/33
f 1/3/34 3/8/34 5/12/34 7/16/34 9/20/34 11/24/34 13/28/34 15/32/34 17/36/34 19/40/34 21/44/34 23/48/34 25/52/34 27/56/34 29/60/34 31/64/34 33/68/34 35/72/34 37/76/34 39/80/34 41/84/34 43/88/34 45/92/34 47/96/34 49/100/34 51/104/34 53/108/34 55/112/34 57/116/34 59/120/34 61/124/34 63/128/34
